<svg xmlns="http://www.w3.org/2000/svg" version="1.1" xmlns:xlink="http://www.w3.org/1999/xlink" xmlns:svgjs="http://svgjs.com/svgjs" width="512" height="512" x="0" y="0" viewBox="0 0 32 32" style="enable-background:new 0 0 512 512" xml:space="preserve" class=""><g><g id="delete_message" data-name="delete message"><path d="m25 10h-20a2 2 0 0 0 -2 2v14a2 2 0 0 0 2 2h20a2 2 0 0 0 2-2v-14a2 2 0 0 0 -2-2zm-2.07 2-7.93 5.76-7.92-5.76zm-17.93 14v-13l9.41 6.85a1 1 0 0 0 1.18 0l9.41-6.85v13z" fill="#000000" data-original="#000000" class=""></path><path d="m29 7h-4a1 1 0 0 0 0 2h4a1 1 0 0 0 0-2z" fill="#000000" data-original="#000000" class=""></path></g></g></svg>