<?xml version="1.0" encoding="UTF-8"?> <svg xmlns="http://www.w3.org/2000/svg" xmlns:xlink="http://www.w3.org/1999/xlink" version="1.1" id="Layer_1" x="0px" y="0px" viewBox="0 0 58.6 58.6" style="enable-background:new 0 0 58.6 58.6;" xml:space="preserve"> <style type="text/css"> .st0{fill:url(#Контур_22_1_);} .st1{fill:url(#Контур_23_1_);} .st2{fill:url(#Контур_24_1_);} .st3{fill:url(#Контур_25_1_);} .st4{fill:#B7875E;} .st5{fill:#ECBA89;} .st6{fill:url(#Контур_28_1_);} </style> <g id="логотип" transform="translate(-435 -55)"> <g id="логотип_символ" transform="translate(124.041 -325.856)"> <linearGradient id="Контур_22_1_" gradientUnits="userSpaceOnUse" x1="150.9046" y1="801.6343" x2="150.9046" y2="806.2617" gradientTransform="matrix(4.9472 0 0 -9.754 -383.2317 8258.0947)"> <stop offset="0" style="stop-color:#B7875E"></stop> <stop offset="1" style="stop-color:#ECBA89"></stop> </linearGradient> <path id="Контур_22" class="st0" d="M364.8,415.8c0-1.5,1.2-2.8,2.8-2.8l0,0v-5.6c-4.6-0.1-8.4,3.6-8.4,8.2 c-0.1,4.6,3.6,8.4,8.2,8.4c0.1,0,0.2,0,0.2,0v-5.6C366,418.5,364.8,417.3,364.8,415.8z"></path> <linearGradient id="Контур_23_1_" gradientUnits="userSpaceOnUse" x1="123.7545" y1="826.9285" x2="123.7545" y2="828.6571" gradientTransform="matrix(11.784 0 0 -23.567 -1100.8065 19921.7617)"> <stop offset="0" style="stop-color:#B7875E"></stop> <stop offset="1" style="stop-color:#ECBA89"></stop> </linearGradient> <path id="Контур_23" class="st1" d="M347.5,415.6c0-11.1,9-20.1,20.1-20.1l0,0v6.2l0,0c-7.7-0.1-14,6.1-14.1,13.8 c-0.1,7.7,6.1,14,13.8,14.1c0.1,0,0.2,0,0.3,0l0,0v6.2l0,0C356.5,435.7,347.5,426.7,347.5,415.6z"></path> <linearGradient id="Контур_24_1_" gradientUnits="userSpaceOnUse" x1="122.5314" y1="827.0988" x2="122.5314" y2="828.6912" gradientTransform="matrix(11.7938 0 0 -23.568 -1122.0737 19916.209)"> <stop offset="0" style="stop-color:#B7875E"></stop> <stop offset="1" style="stop-color:#ECBA89"></stop> </linearGradient> <path id="Контур_24" class="st2" d="M313,418.6c7.7-0.1,13.8-6.4,13.8-14.1c-0.1-7.6-6.2-13.7-13.8-13.8v-6.2 c11.1,0,20.1,9,20.1,20.1c0,11.1-9,20.1-20.1,20.1c0,0,0,0,0,0V418.6z"></path> <linearGradient id="Контур_25_1_" gradientUnits="userSpaceOnUse" x1="148.2907" y1="802.1069" x2="148.2907" y2="806.7344" gradientTransform="matrix(4.8068 0 0 -9.753 -395.7096 8250.6299)"> <stop offset="0" style="stop-color:#B7875E"></stop> <stop offset="1" style="stop-color:#ECBA89"></stop> </linearGradient> <path id="Контур_25" class="st3" d="M315.8,404.5c0-1.5-1.2-2.8-2.8-2.8v-5.6c4.6,0.1,8.3,3.8,8.2,8.4 c-0.1,4.5-3.7,8.1-8.2,8.2v-5.6C314.5,407.3,315.8,406,315.8,404.5z"></path> <path id="Контур_26" class="st4" d="M344,422.4c1.2,5.5,4.7,10.3,9.6,13.1h-23.2C336.2,432.8,341,428.2,344,422.4z"></path> <path id="Контур_27" class="st5" d="M336.6,397.8c-1.2-5.5-4.7-10.3-9.6-13.1h23.2C344.3,387.4,339.6,392,336.6,397.8z"></path> <linearGradient id="Контур_28_1_" gradientUnits="userSpaceOnUse" x1="111.3184" y1="830.5916" x2="111.3184" y2="832.3203" gradientTransform="matrix(32.111 0 0 -30.008 -3234.2659 25357.3867)"> <stop offset="0" style="stop-color:#B7875E"></stop> <stop offset="1" style="stop-color:#ECBA89"></stop> </linearGradient> <path id="Контур_28" class="st6" d="M366.3,384.6c-10.4,0-20,5.5-25.2,14.5l0,0c-0.7,1.1-1.4,2.3-1.9,3.6 c-0.2,0.4-0.4,0.9-0.5,1.4s-0.3,1.1-0.5,1.7c0,0.1,0,0.1-0.1,0.2l0,0.1c-0.1,0.5-0.3,1.1-0.4,1.7v0c-0.1,0.3-0.1,0.6-0.2,0.9 c-0.7,4-2.2,7.9-4.3,11.4l-0.1,0.2c-0.1,0.1-0.2,0.2-0.3,0.3c-4.4,5.9-11.3,9.3-18.6,9.3c-0.4,0-0.9,0-1.3,0v5.9 c0.4,0,0.8,0,1.3,0c10.5,0,20.2-5.6,25.4-14.8l0,0c2.2-3.9,3.6-8.2,4.2-12.6c0.5-2.5,1.5-4.8,2.9-7c0-0.1,0.1-0.2,0.1-0.2l0.1-0.1 c4.3-6.5,11.6-10.5,19.5-10.5c0.4,0,0.9,0,1.3,0v-5.9C367.2,384.6,366.8,384.6,366.3,384.6z"></path> </g> </g> </svg> 