<?xml version="1.0" encoding="UTF-8"?> <svg xmlns="http://www.w3.org/2000/svg" xmlns:xlink="http://www.w3.org/1999/xlink" width="179.659" height="30.488" viewBox="0 0 179.659 30.488"><defs><linearGradient id="linear-gradient" x1="52.24" y1="1.896" x2="52.24" y2="-0.821" gradientUnits="objectBoundingBox"><stop offset="0" stop-color="#b7875e"></stop><stop offset="1" stop-color="#ecba89"></stop></linearGradient><linearGradient id="linear-gradient-2" x1="0.5" y1="0.946" x2="0.5" y2="-0.069" xlink:href="#linear-gradient"></linearGradient><linearGradient id="linear-gradient-3" x1="0.5" y1="0.959" x2="0.5" y2="0.024" xlink:href="#linear-gradient"></linearGradient><linearGradient id="linear-gradient-4" x1="0.5" y1="1.896" x2="0.5" y2="-0.821" xlink:href="#linear-gradient"></linearGradient></defs><g id="логотип" transform="translate(-435 -55)"><g id="логотип_символ" data-name="логотип символ" transform="translate(124.041 -325.856)"><path id="Контур_22" data-name="Контур 22" d="M532.365,444.835a1.617,1.617,0,0,1,1.617-1.617v-3.26a4.877,4.877,0,1,0,0,9.753v-3.26A1.617,1.617,0,0,1,532.365,444.835Z" transform="translate(-190.96 -45.207)" fill="url(#linear-gradient)"></path><path id="Контур_23" data-name="Контур 23" d="M499.509,422.147a11.784,11.784,0,0,1,11.784-11.784h0v3.615h0a8.169,8.169,0,1,0,0,16.337h0v3.615h0A11.784,11.784,0,0,1,499.509,422.147Z" transform="translate(-168.263 -22.587)" fill="url(#linear-gradient-2)"></path><path id="Контур_24" data-name="Контур 24" d="M410,401.3a8.169,8.169,0,0,0,0-16.337v-3.615a11.784,11.784,0,1,1,0,23.568Z" transform="translate(-99.006 0)" fill="url(#linear-gradient-3)"></path><path id="Контур_25" data-name="Контур 25" d="M411.617,415.817A1.617,1.617,0,0,0,410,414.2v-3.26a4.877,4.877,0,0,1,0,9.753v-3.26A1.617,1.617,0,0,0,411.617,415.817Z" transform="translate(-98.997 -22.803)" fill="url(#linear-gradient-4)"></path><path id="Контур_26" data-name="Контур 26" d="M463.26,478.265a11.8,11.8,0,0,0,5.627,7.72H455.276A17.579,17.579,0,0,0,463.26,478.265Z" transform="translate(-134.068 -74.716)" fill="#b7875e"></path><path id="Контур_27" data-name="Контур 27" d="M452.031,389.064a11.8,11.8,0,0,0-5.627-7.72h13.611A17.58,17.58,0,0,0,452.031,389.064Z" transform="translate(-127.198 0)" fill="#ecba89"></path><path id="Контур_28" data-name="Контур 28" d="M441.363,381.344a17.161,17.161,0,0,0-14.806,8.508l-.006.007a11.454,11.454,0,0,0-1.09,2.1c-.106.248-.213.513-.318.8s-.2.617-.294.985c-.012.042-.022.085-.034.128l-.009.036c-.083.309-.161.631-.231.971l0,.022c-.039.178-.077.358-.114.539a19.065,19.065,0,0,1-2.553,6.688l-.071.1q-.074.1-.15.2a13.692,13.692,0,0,1-10.941,5.463c-.249,0-.5-.007-.742-.021v3.463c.246.011.493.019.742.019a17.165,17.165,0,0,0,14.905-8.676h0a20.073,20.073,0,0,0,2.454-7.4,12.375,12.375,0,0,1,1.7-4.1c.028-.044.056-.089.085-.133l.05-.076a13.712,13.712,0,0,1,11.433-6.151c.249,0,.5.007.742.021v-3.463C441.859,381.352,441.612,381.344,441.363,381.344Z" transform="translate(-99.04 0)" fill="url(#linear-gradient-2)"></path></g><g id="Сгруппировать_9" data-name="Сгруппировать 9" transform="translate(487 55)"><path id="Контур_1" data-name="Контур 1" d="M258.708,583.116h-6.9l.062,1.361,1.6.353c.409.1.485.221.485.432a1.2,1.2,0,0,1-.032.2l-.015.072L250.362,597.1l-3.417-11.137-.019-.067a3.653,3.653,0,0,1-.2-.956l1.776-.47.062-1.357h-6.294l.061,1.351.7.232a1.08,1.08,0,0,1,.785.731l1.031,3.245-3.337,8.477-3.383-11.113a2.541,2.541,0,0,1-.215-1.122l1.7-.443.062-1.357h-6.728l.062,1.356,1.013.281c.645.167.838.412.953.779l4.794,15.044.033.1,2.674-.3.376-1.61,2.968-7.078,2.856,8.992,2.649-.3.3-1.282,4.791-13.481a1.377,1.377,0,0,1,1.076-.885l1.2-.251Z" transform="translate(-232.935 -582.611)" fill="#222226"></path><path id="Контур_2" data-name="Контур 2" d="M340.26,581.344a8.356,8.356,0,0,0-6.587,2.832,9.963,9.963,0,0,0-2.215,6.505,9.172,9.172,0,0,0,2.15,6.24,8.119,8.119,0,0,0,6.269,2.562,8.383,8.383,0,0,0,6.557-2.783,9.936,9.936,0,0,0,2.245-6.554,9.151,9.151,0,0,0-2.169-6.259A8.131,8.131,0,0,0,340.26,581.344Zm-.128,16.345c-3.291,0-5.5-3.093-5.5-7.7,0-4.244,2.05-6.88,5.35-6.88s5.5,3.093,5.5,7.7C345.483,595.117,343.483,597.689,340.132,597.689Z" transform="translate(-306.016 -581.344)" fill="#222226"></path><path id="Контур_3" data-name="Контур 3" d="M413.568,581.344a8.357,8.357,0,0,0-6.587,2.832,9.963,9.963,0,0,0-2.215,6.505,9.17,9.17,0,0,0,2.15,6.24,8.119,8.119,0,0,0,6.269,2.562,8.383,8.383,0,0,0,6.557-2.783,9.937,9.937,0,0,0,2.244-6.554,9.151,9.151,0,0,0-2.169-6.259A8.13,8.13,0,0,0,413.568,581.344Zm-.128,16.345c-3.292,0-5.5-3.093-5.5-7.7,0-4.244,2.05-6.88,5.35-6.88s5.5,3.093,5.5,7.7C418.79,595.117,416.79,597.689,413.44,597.689Z" transform="translate(-360.394 -581.344)" fill="#222226"></path><path id="Контур_4" data-name="Контур 4" d="M484.852,582.427c-.822,0-1.533.048-2.219.094-.643.044-1.251.084-1.912.084h-4.062l.031,1.385,1.221.277c.878.208.969.556.969,1.3l-.1,11.3c0,.877-.167,1.115-.891,1.273l-1.348.3-.062,1.386h8.043c6.309,0,9.133-4.613,9.133-9.184a8.088,8.088,0,0,0-2.29-5.838A9.022,9.022,0,0,0,484.852,582.427Zm-.082,15.656-3.251.122.277-13.015a.907.907,0,0,1,.88-.894,11.991,11.991,0,0,1,1.513-.075c3.867,0,6.268,2.734,6.268,7.135C490.456,595.534,488.437,597.923,484.77,598.083Z" transform="translate(-413.587 -582.099)" fill="#222226"></path><path id="Контур_5" data-name="Контур 5" d="M560.954,596.668a45.8,45.8,0,0,1-3.772-4.768,5.38,5.38,0,0,0,3.578-4.805c0-2.733-2.3-4.569-5.716-4.569-.45,0-1.062.039-1.653.077s-1.194.076-1.636.076H547.97l.062,1.361,1.219.277c.877.208.969.556.969,1.3l-.1,11.348c0,.877-.166,1.115-.891,1.273l-1.348.3-.062,1.361h7.85l-.062-1.368-1.739-.272c-.873-.138-1.01-.51-.985-1.3l.074-4.462,1.631-.023a48.9,48.9,0,0,0,3.055,4.561c1.651,2.211,3.034,3.113,4.772,3.113a3.312,3.312,0,0,0,1.5-.277l.048-.032.209-1.281-.128-.023A6.142,6.142,0,0,1,560.954,596.668Zm-3.135-9.064c0,1.5-.848,3.151-2.223,3.208l-.377.025-2.234.048.125-6.316c0-.237.1-.357.32-.379a3.319,3.319,0,0,1,.466-.024C556.353,584.166,557.819,585.451,557.819,587.6Z" transform="translate(-466.502 -582.172)" fill="#222226"></path><path id="Контур_6" data-name="Контур 6" d="M618.636,581.344a8.357,8.357,0,0,0-6.587,2.832,9.963,9.963,0,0,0-2.215,6.505,9.17,9.17,0,0,0,2.15,6.24,8.119,8.119,0,0,0,6.269,2.562,8.383,8.383,0,0,0,6.557-2.783,9.937,9.937,0,0,0,2.244-6.554,9.151,9.151,0,0,0-2.169-6.259A8.131,8.131,0,0,0,618.636,581.344Zm-.128,16.345c-3.292,0-5.5-3.093-5.5-7.7,0-4.244,2.05-6.88,5.35-6.88s5.5,3.093,5.5,7.7C623.858,595.117,621.858,597.689,618.508,597.689Z" transform="translate(-512.552 -581.344)" fill="#222226"></path><path id="Контур_7" data-name="Контур 7" d="M689.92,589.136c-2.416-1.247-3.192-2.111-3.192-3.554a2.351,2.351,0,0,1,2.57-2.443c2.838,0,3.547,2.614,3.72,3.738l.018.119,1.436-.092.006-.117c.075-1.407.1-3.7.1-5.234v-.2l-1.834.739a7.971,7.971,0,0,0-3.27-.752c-3.125,0-5.308,2.026-5.308,4.926,0,2.509,1.608,3.88,4.023,5.166,2.885,1.52,4.06,2.295,4.06,3.861,0,1.537-1.058,2.418-2.9,2.418-2.416,0-3.83-1.445-4.2-4.3l-.016-.125-1.5.122v.122a32.963,32.963,0,0,0,.437,5.767l.035.154,1.413-.6a9.936,9.936,0,0,0,3.653.623c3.473,0,5.717-1.883,5.717-4.8C694.887,591.695,692.474,590.452,689.92,589.136Z" transform="translate(-567.228 -581.344)" fill="#222226"></path></g><g id="Сгруппировать_10" data-name="Сгруппировать 10" transform="translate(494 80.709)"><path id="Контур_8" data-name="Контур 8" d="M302.395,684.672l.315-3.863h.746l.762,1.91.19.566h.011c.07-.223.13-.414.19-.566l.762-1.91h.746l.315,3.863h-.7l-.158-2.16a3.933,3.933,0,0,1-.006-.506v-.092h-.011c-.082.251-.152.452-.212.6l-.626,1.5h-.609l-.626-1.5-.212-.6h-.011a4.307,4.307,0,0,1-.006.6l-.158,2.16Z" transform="translate(-302.395 -680.744)" fill="#222226"></path><path id="Контур_9" data-name="Контур 9" d="M331.521,684.672v-3.863h2.312v.6h-1.61v1.012h1.3v.6h-1.3v1.039h1.7v.6Z" transform="translate(-324.052 -680.744)" fill="#222226"></path><path id="Контур_10" data-name="Контур 10" d="M353.97,684.672v-3.863h2.372v.6h-1.671v.892h.773a1.192,1.192,0,0,1,.87.326,1.265,1.265,0,0,1,.005,1.714,1.175,1.175,0,0,1-.86.326Zm.7-.6h.664a.538.538,0,0,0,.6-.571.559.559,0,0,0-.615-.588h-.653Z" transform="translate(-340.701 -680.744)" fill="#222226"></path><path id="Контур_11" data-name="Контур 11" d="M377.406,684.672v-3.863h2.312v.6h-1.61v1.012h1.3v.6h-1.3v1.039h1.7v.6Z" transform="translate(-358.083 -680.744)" fill="#222226"></path><path id="Контур_12" data-name="Контур 12" d="M398.342,684.073c.582-.082.833-.729.833-2.209v-1.055h2.388v3.863h-.7v-3.259h-1.017v.463c0,1.9-.441,2.8-1.5,2.84Z" transform="translate(-373.611 -680.744)" fill="#222226"></path><path id="Контур_13" data-name="Контур 13" d="M424.886,684.672v-3.863h.7v1.355h.756a1.152,1.152,0,0,1,.871.348,1.4,1.4,0,0,1,.005,1.817,1.154,1.154,0,0,1-.865.343Zm.7-.6h.642a.575.575,0,0,0,.609-.642.6.6,0,0,0-.62-.658h-.631Z" transform="translate(-393.297 -680.744)" fill="#222226"></path><path id="Контур_14" data-name="Контур 14" d="M463.8,684.672v-3.863h.7v2.231l-.038.6h.011q.187-.375.327-.6l1.458-2.225h.7v3.863h-.7v-2.225l.038-.6h-.011c-.12.245-.229.446-.321.6l-1.469,2.225Z" transform="translate(-422.158 -680.744)" fill="#222226"></path><path id="Контур_15" data-name="Контур 15" d="M489.149,683.533a1.265,1.265,0,0,0,.87.4c.419,0,.686-.223.686-.593a.54.54,0,0,0-.615-.539h-.473v-.566H490a.552.552,0,0,0,.6-.533.524.524,0,0,0-.593-.533,1.3,1.3,0,0,0-.838.327l-.283-.512a1.886,1.886,0,0,1,1.241-.424,1.26,1.26,0,0,1,.837.283.939.939,0,0,1,.348.772.926.926,0,0,1-.533.86v.011a.892.892,0,0,1,.647.9,1.061,1.061,0,0,1-.386.854,1.438,1.438,0,0,1-.952.315,1.828,1.828,0,0,1-1.317-.549Z" transform="translate(-440.676 -680.557)" fill="#222226"></path><path id="Контур_16" data-name="Контур 16" d="M526.358,684.068h.392a4.358,4.358,0,0,0,.561-2.416v-.843h2.4v3.259h.43v1.366h-.626v-.762h-2.508v.762h-.648Zm2.65,0v-2.655h-1.034v.289a4.559,4.559,0,0,1-.5,2.366Z" transform="translate(-468.558 -680.744)" fill="#222226"></path><path id="Контур_17" data-name="Контур 17" d="M554.056,684.672v-3.863h2.312v.6h-1.611v1.012h1.3v.6h-1.3v1.039h1.7v.6Z" transform="translate(-489.098 -680.744)" fill="#222226"></path><path id="Контур_18" data-name="Контур 18" d="M576.505,684.672v-3.863H578a1.18,1.18,0,0,1,.887.348,1.238,1.238,0,0,1,.343.909,1.274,1.274,0,0,1-.343.92,1.185,1.185,0,0,1-.887.354h-.789v1.333Zm.7-1.942h.658a.659.659,0,0,0,.011-1.317h-.669Z" transform="translate(-505.748 -680.744)" fill="#222226"></path><path id="Контур_19" data-name="Контур 19" d="M599.857,684.672v-3.863h2.312v.6h-1.61v1.012h1.3v.6h-1.3v1.039h1.7v.6Z" transform="translate(-523.066 -680.744)" fill="#222226"></path><path id="Контур_20" data-name="Контур 20" d="M622.306,684.672v-3.863h1.376c.718,0,1.2.37,1.2,1a.918.918,0,0,1-.468.827v.011a.9.9,0,0,1,.626.909.982.982,0,0,1-.381.838,1.544,1.544,0,0,1-.952.283Zm.7-2.285h.68a.459.459,0,0,0,.479-.5.452.452,0,0,0-.49-.479h-.669Zm0,1.681h.751a.558.558,0,1,0,0-1.115h-.751Z" transform="translate(-539.717 -680.744)" fill="#222226"></path><path id="Контур_21" data-name="Контур 21" d="M644.293,684.672l1.355-3.863h.74l1.355,3.863h-.718l-.332-.99h-1.355l-.326.99Zm1.219-1.561h1.007l-.343-1.033-.152-.6h-.011c-.06.256-.109.452-.152.6Z" transform="translate(-556.081 -680.744)" fill="#222226"></path></g></g></svg> 